<svg xmlns="http://www.w3.org/2000/svg" width="45" height="44" viewBox="0 0 45 44" fill="none">
  <path d="M22.5356 37.021C30.7356 37.021 37.5356 30.221 37.5356 22.021C37.5356 13.821 30.7356 7.021 22.5356 7.021C14.3356 7.021 7.53564 13.821 7.53564 22.021C7.53564 30.221 14.3356 37.021 22.5356 37.021ZM22.5356 35.021C15.2356 35.021 9.43565 29.221 9.43565 22.021C9.43565 14.821 15.2356 8.92099 22.4356 8.92099C29.6356 8.92099 35.5356 14.721 35.5356 22.021C35.5356 29.221 29.7356 35.021 22.5356 35.021ZM25.3356 29.321C25.6356 29.021 25.6356 28.421 25.3356 28.121L18.9356 22.021L25.3356 15.921C25.7356 15.621 25.6356 15.021 25.3356 14.721C25.0356 14.421 24.4356 14.421 24.1356 14.721L17.6356 20.921C16.9356 21.521 16.9356 22.521 17.6356 23.121L24.1356 29.321C24.4356 29.621 25.0356 29.721 25.3356 29.321Z" fill="#232323"/>
</svg>